<?xml version="1.0" standalone="no"?>
<!DOCTYPE svg PUBLIC "-//W3C//DTD SVG 20010904//EN"
 "http://www.w3.org/TR/2001/REC-SVG-20010904/DTD/svg10.dtd">
<svg version="1.0" xmlns="http://www.w3.org/2000/svg"
 width="512.000000pt" height="512.000000pt" viewBox="0 0 512.000000 512.000000"
 preserveAspectRatio="xMidYMid meet">
<metadata>
Created by potrace 1.11, written by Peter Selinger 2001-2013
</metadata>
<g transform="translate(0.000000,512.000000) scale(0.100000,-0.100000)"
fill="#000000" stroke="none">
<path d="M658 3113 l-38 -4 33 -47 c77 -113 168 -224 263 -321 l101 -105 -160
-206 c-88 -113 -166 -212 -174 -221 -12 -15 -5 -23 63 -78 42 -33 80 -61 84
-61 4 0 78 91 165 203 87 111 164 208 171 216 11 12 29 3 116 -55 57 -38 164
-100 239 -139 l137 -70 -94 -258 c-52 -143 -92 -262 -89 -267 9 -14 178 -71
186 -63 4 4 23 53 43 108 21 55 45 123 56 150 10 28 35 96 56 153 20 56 43
102 49 102 7 0 31 -7 54 -15 78 -27 335 -74 444 -81 l107 -7 0 -272 c0 -240 2
-274 16 -279 9 -3 56 -6 105 -6 l89 0 2 278 3 277 114 12 c126 13 334 55 419
84 30 10 58 19 62 19 4 0 56 -114 115 -252 59 -139 110 -256 114 -260 10 -11
186 69 184 84 -1 7 -48 123 -106 258 l-104 245 126 66 c130 67 208 114 299
181 29 22 57 38 62 36 5 -2 83 -99 175 -215 91 -117 169 -213 173 -213 4 0 42
27 84 60 l77 60 -80 103 c-44 56 -123 157 -176 225 l-95 123 79 82 c85 88 160
180 241 293 l50 71 -66 7 c-90 8 -185 7 -197 -2 -6 -4 -35 -38 -66 -77 -263
-330 -655 -584 -1071 -694 -195 -52 -311 -66 -538 -66 -227 0 -343 14 -538 66
-216 58 -416 148 -607 274 -198 131 -338 262 -517 484 -16 19 -27 21 -110 19
-51 -1 -110 -3 -130 -5z"/>
</g>
</svg>
